<?xml version="1.0" encoding="UTF-8"?>
<svg width="100%" height="100%" viewBox="0 0 53 54" version="1.1" xmlns="http://www.w3.org/2000/svg" xmlns:xlink="http://www.w3.org/1999/xlink">
    <title>Percent Icon</title>
    <g id="УГУ" stroke="none" strokeWidth="1" fill="none" fillRule="evenodd">
        <g id="Teacher-_add_step4" transform="translate(-787.000000, -604.000000)" fill="#000000">
            <g id="Percent-Icon" transform="translate(787.000000, 604.452120)">
                <path d="M43,34.5478801 C47.9705627,34.5478801 52,38.5773174 52,43.5478801 C52,48.5184429 47.9705627,52.5478801 43,52.5478801 C38.0294373,52.5478801 34,48.5184429 34,43.5478801 C34,38.5773174 38.0294373,34.5478801 43,34.5478801 Z M43,39.5478801 C40.790861,39.5478801 39,41.3387411 39,43.5478801 C39,45.7570191 40.790861,47.5478801 43,47.5478801 C45.209139,47.5478801 47,45.7570191 47,43.5478801 C47,41.3387411 45.209139,39.5478801 43,39.5478801 Z" id="Combined-Shape"></path>
                <path d="M11,0.547880111 C15.9705627,0.547880111 20,4.57731736 20,9.54788011 C20,14.5184429 15.9705627,18.5478801 11,18.5478801 C6.02943725,18.5478801 2,14.5184429 2,9.54788011 C2,4.57731736 6.02943725,0.547880111 11,0.547880111 Z M11,5.54788011 C8.790861,5.54788011 7,7.33874111 7,9.54788011 C7,11.7570191 8.790861,13.5478801 11,13.5478801 C13.209139,13.5478801 15,11.7570191 15,9.54788011 C15,7.33874111 13.209139,5.54788011 11,5.54788011 Z" id="Combined-Shape"></path>
                <rect id="Rectangle" transform="translate(26.433941, 26.500000) rotate(45.000000) translate(-26.433941, -26.500000) " x="22.4339411" y="-6" width="8" height="65" rx="4"></rect>
            </g>
        </g>
    </g>
</svg>
