<?xml version="1.0" encoding="UTF-8"?>
<svg width="100vw" height="100%" viewBox="0 0 1920 380" version="1.1" xmlns="http://www.w3.org/2000/svg" xmlns:xlink="http://www.w3.org/1999/xlink">
    <title>Group 5</title>
    <defs>
        <rect id="path-1" x="0" y="0" width="1920" height="380"></rect>
    </defs>
    <g id="УГУ" stroke="none" strokeWidth="1" fill="none" fillRule="evenodd">
        <g id="course-page" transform="translate(-1.000000, -93.000000)">
            <g id="Group-5" transform="translate(1.000000, 93.000000)">
                <mask id="mask-2" fill="white">
                    <use xlink:href="#path-1"></use>
                </mask>
                <use id="Rectangle" fill="#F8F8F8" xlink:href="#path-1"></use>
                <path d="M380.713623,90.2853932 L843.617557,-146.02911 C848.499849,-148.521541 854.284415,-148.506783 859.153925,-145.98947 L1183.62255,21.7458619 C1191.96287,26.057419 1195.22882,36.3137854 1190.91726,44.6540975 C1189.28776,47.8062245 1186.71275,50.3694454 1183.55317,51.9844682 L751.578361,272.789492 C735.310328,281.104939 716.075128,281.269126 699.667518,273.232592 L380.935748,117.116087 C373.49598,113.47205 370.418933,104.486851 374.062971,97.0470831 C375.490201,94.1332094 377.823778,91.7606716 380.713623,90.2853932 Z" id="Path-2-Copy" stroke="#979797" opacity="0.0933547247" stroke-dasharray="5" mask="url(#mask-2)"></path>
                <path d="M1331.71362,29.2853932 L1794.61756,-207.02911 C1799.49985,-209.521541 1805.28442,-209.506783 1810.15393,-206.98947 L2134.62255,-39.2541381 C2142.96287,-34.942581 2146.22882,-24.6862146 2141.91726,-16.3459025 C2140.28776,-13.1937755 2137.71275,-10.6305546 2134.55317,-9.01553176 L1702.57836,211.789492 C1686.31033,220.104939 1667.07513,220.269126 1650.66752,212.232592 L1331.93575,56.1160874 C1324.49598,52.4720499 1321.41893,43.4868507 1325.06297,36.0470831 C1326.4902,33.1332094 1328.82378,30.7606716 1331.71362,29.2853932 Z" id="Path-2" stroke="#979797" opacity="0.2085891" stroke-dasharray="5" mask="url(#mask-2)"></path>
                <path d="M1740.71362,237.285393 L2203.61756,0.970890276 C2208.49985,-1.52154131 2214.28442,-1.50678256 2219.15393,1.01052979 L2543.62255,168.745862 C2551.96287,173.057419 2555.22882,183.313785 2550.91726,191.654098 C2549.28776,194.806225 2546.71275,197.369445 2543.55317,198.984468 L2111.57836,419.789492 C2095.31033,428.104939 2076.07513,428.269126 2059.66752,420.232592 L1740.93575,264.116087 C1733.49598,260.47205 1730.41893,251.486851 1734.06297,244.047083 C1735.4902,241.133209 1737.82378,238.760672 1740.71362,237.285393 Z" id="Path-2-Copy-3" stroke="#979797" opacity="0.2085891" stroke-dasharray="5" mask="url(#mask-2)"></path>
                <path d="M1803.7723,232.986952 L2117.81533,72.9579566 C2122.69156,70.4731445 2128.46585,70.4878614 2133.32935,72.9974971 L2349.55779,184.5745 C2357.9013,188.879871 2361.17486,199.133812 2356.86949,207.47732 C2355.23838,210.638282 2352.65687,213.207993 2349.48846,214.824589 L2063.32389,360.832507 C2047.07619,369.122469 2027.87522,369.286186 2011.48852,361.27448 L1803.99427,259.827398 C1796.55188,256.188705 1793.46839,247.205718 1797.10708,239.763335 C1798.53549,236.841732 1800.87472,234.463491 1803.7723,232.986952 Z" id="Path-2-Copy-5" fill="#D8D8D8" opacity="0.124604725" mask="url(#mask-2)"></path>
                <path d="M1439.7723,26.9869516 L1753.81533,-133.042043 C1758.69156,-135.526856 1764.46585,-135.512139 1769.32935,-133.002503 L1985.55779,-21.4254996 C1993.9013,-17.1201292 1997.17486,-6.86618773 1992.86949,1.47731971 C1991.23838,4.63828221 1988.65687,7.2079935 1985.48846,8.8245891 L1699.32389,154.832507 C1683.07619,163.122469 1663.87522,163.286186 1647.48852,155.27448 L1439.99427,53.8273985 C1432.55188,50.1887049 1429.46839,41.2057178 1433.10708,33.7633351 C1434.53549,30.8417319 1436.87472,28.4634908 1439.7723,26.9869516 Z" id="Path-2-Copy-7" fill="#D8D8D8" opacity="0.124604725" mask="url(#mask-2)"></path>
            </g>
        </g>
    </g>
</svg>