<svg width="60" height="60" viewBox="0 0 60 60" fill="none" xmlns="http://www.w3.org/2000/svg">
<path d="M49.75 7.73272C49.4426 6.41199 48.8698 5.16757 48.0663 4.07514C47.2629 2.98271 46.2456 2.06511 45.0764 1.37813C43.9071 0.691149 42.6104 0.249151 41.2649 0.0790148C39.9195 -0.0911215 38.5535 0.0141591 37.25 0.388454L32.94 1.62083C31.8482 1.9346 30.8426 2.49379 30 3.25567C29.1574 2.49379 28.1518 1.9346 27.06 1.62083L22.75 0.388454C21.4473 0.0161099 20.0826 -0.0876698 18.7386 0.0834141C17.3946 0.254498 16.0994 0.696877 14.9316 1.3837C13.7638 2.07052 12.7477 2.98746 11.9451 4.07887C11.1425 5.17027 10.57 6.41337 10.2625 7.73272C7.38699 8.25583 4.78572 9.76991 2.91083 12.0118C1.03594 14.2537 0.00598996 17.0816 0 20.004L0 37.5023C0.00396964 40.8159 1.3222 43.9927 3.66555 46.3358C6.00889 48.6789 9.18601 49.997 12.5 50.001H27.5V55.0005H20C19.337 55.0005 18.7011 55.2639 18.2322 55.7327C17.7634 56.2015 17.5 56.8373 17.5 57.5003C17.5 58.1632 17.7634 58.799 18.2322 59.2678C18.7011 59.7366 19.337 60 20 60H40C40.663 60 41.2989 59.7366 41.7678 59.2678C42.2366 58.799 42.5 58.1632 42.5 57.5003C42.5 56.8373 42.2366 56.2015 41.7678 55.7327C41.2989 55.2639 40.663 55.0005 40 55.0005H32.5V50.001H47.5C50.814 49.997 53.9911 48.6789 56.3345 46.3358C58.6778 43.9927 59.996 40.8159 60 37.5023V20.004C59.9945 17.0834 58.9664 14.2569 57.094 12.0153C55.2216 9.77363 52.6232 8.25843 49.75 7.73272ZM32.5 8.83261C32.5002 8.2897 32.6772 7.76163 33.0042 7.32823C33.3312 6.89482 33.7905 6.57965 34.3125 6.43035L38.625 5.19797C39.3692 4.98513 40.1527 4.94796 40.9137 5.0894C41.6747 5.23083 42.3925 5.54701 43.0105 6.01302C43.6285 6.47903 44.1299 7.08215 44.4751 7.77488C44.8204 8.4676 45 9.23102 45 10.005V19.849C44.9965 20.9338 44.6414 21.9882 43.9878 22.854C43.3342 23.7198 42.4174 24.3504 41.375 24.651L32.5 27.1858V8.83261ZM17 6.00539C17.6168 5.54107 18.3331 5.22644 19.0924 5.08632C19.8516 4.9462 20.6331 4.98442 21.375 5.19797L25.6875 6.43035C26.2095 6.57965 26.6688 6.89482 26.9958 7.32823C27.3228 7.76163 27.4998 8.2897 27.5 8.83261V27.1858L18.625 24.651C17.5826 24.3504 16.6658 23.7198 16.0122 22.854C15.3586 21.9882 15.0035 20.9338 15 19.849V10.005C14.9975 9.2284 15.1771 8.46203 15.5244 7.76742C15.8717 7.07281 16.3771 6.46932 17 6.00539ZM55 37.5023C55 39.4912 54.2098 41.3986 52.8033 42.805C51.3968 44.2114 49.4891 45.0015 47.5 45.0015H12.5C10.5109 45.0015 8.60322 44.2114 7.1967 42.805C5.79018 41.3986 5 39.4912 5 37.5023V20.004C5.00641 18.4585 5.49021 16.9527 6.38522 15.6927C7.28023 14.4326 8.54273 13.4799 10 12.9647V19.849C10.0061 22.0196 10.716 24.1298 12.0232 25.8627C13.3304 27.5957 15.1644 28.8581 17.25 29.4606L25.8775 31.9278C28.5738 32.6963 31.4312 32.6963 34.1275 31.9278L42.755 29.4606C44.8396 28.8572 46.6725 27.5944 47.9788 25.8615C49.285 24.1286 49.9942 22.019 50 19.849V12.9647C51.4573 13.4799 52.7198 14.4326 53.6148 15.6927C54.5098 16.9527 54.9936 18.4585 55 20.004V37.5023Z" fill="#7181FF"/>
</svg>
