<svg width="19" height="19" viewBox="0 0 19 19" fill="none" xmlns="http://www.w3.org/2000/svg">
<path d="M9.5 0C4.26154 0 0 4.26154 0 9.5C0 14.7385 4.26154 19 9.5 19C14.7385 19 19 14.7385 19 9.5C19 4.26154 14.7385 0 9.5 0ZM9.5 17.4167C5.13475 17.4167 1.58333 13.8653 1.58333 9.5C1.58333 5.13475 5.13475 1.58333 9.5 1.58333C13.8653 1.58333 17.4167 5.13475 17.4167 9.5C17.4167 13.8653 13.8653 17.4167 9.5 17.4167ZM12.6667 11.0833C12.6667 12.3928 11.6011 13.4583 10.2917 13.4583V14.25C10.2917 14.6878 9.93779 15.0417 9.5 15.0417C9.06221 15.0417 8.70833 14.6878 8.70833 14.25V13.4583H8.49617C7.65146 13.4583 6.86296 13.0039 6.43942 12.2716C6.22013 11.8924 6.34996 11.4087 6.72758 11.1902C7.10679 10.9693 7.59129 11.1007 7.809 11.4784C7.95071 11.7238 8.21354 11.875 8.49538 11.875H10.2909C10.7279 11.875 11.0825 11.5203 11.0825 11.0833C11.0825 10.7841 10.868 10.5308 10.5727 10.4817L8.16525 10.0803C7.10283 9.90375 6.33254 8.99333 6.33254 7.91667C6.33254 6.60725 7.39812 5.54167 8.70754 5.54167V4.75C8.70754 4.313 9.06142 3.95833 9.49921 3.95833C9.937 3.95833 10.2909 4.313 10.2909 4.75V5.54167H10.503C11.3478 5.54167 12.1363 5.99688 12.5598 6.72917C12.7791 7.10758 12.6493 7.59129 12.2716 7.81058C11.8916 8.02988 11.4079 7.90004 11.1902 7.52163C11.0485 7.277 10.7857 7.12579 10.5038 7.12579H8.70833C8.27133 7.12579 7.91667 7.48125 7.91667 7.91746C7.91667 8.21671 8.13121 8.47004 8.4265 8.51912L10.834 8.9205C11.8964 9.09704 12.6667 10.0075 12.6667 11.0841V11.0833Z" fill="white" fill-opacity="0.7"/>
</svg>
