<svg width="19" height="19" viewBox="0 0 19 19" fill="none" xmlns="http://www.w3.org/2000/svg">
<path d="M5.9375 10.2917C5.2329 10.2917 4.54413 10.0827 3.95828 9.69128C3.37243 9.29983 2.91582 8.74344 2.64618 8.09248C2.37654 7.44152 2.30599 6.72522 2.44345 6.03416C2.58091 5.3431 2.92021 4.70832 3.41843 4.2101C3.91666 3.71188 4.55143 3.37258 5.24249 3.23512C5.93355 3.09766 6.64985 3.16821 7.30081 3.43785C7.95177 3.70748 8.50816 4.1641 8.89961 4.74995C9.29106 5.3358 9.5 6.02457 9.5 6.72917C9.49895 7.67368 9.12328 8.57921 8.45541 9.24708C7.78754 9.91495 6.88201 10.2906 5.9375 10.2917ZM5.9375 4.75C5.54606 4.75 5.16341 4.86608 4.83793 5.08355C4.51246 5.30102 4.25879 5.61013 4.10899 5.97177C3.95919 6.33342 3.92 6.73136 3.99636 7.11528C4.07273 7.4992 4.26123 7.85186 4.53802 8.12865C4.81481 8.40544 5.16746 8.59394 5.55138 8.6703C5.9353 8.74667 6.33325 8.70748 6.69489 8.55768C7.05654 8.40788 7.36564 8.15421 7.58312 7.82873C7.80059 7.50326 7.91667 7.12061 7.91667 6.72917C7.91667 6.20426 7.70815 5.70085 7.33698 5.32969C6.96582 4.95852 6.46241 4.75 5.9375 4.75ZM11.875 18.2083V17.8125C11.875 16.2378 11.2494 14.7276 10.1359 13.6141C9.02245 12.5006 7.51222 11.875 5.9375 11.875C4.36278 11.875 2.85255 12.5006 1.73905 13.6141C0.625556 14.7276 0 16.2378 0 17.8125L0 18.2083C0 18.4183 0.0834075 18.6197 0.231874 18.7681C0.38034 18.9166 0.581704 19 0.791667 19C1.00163 19 1.20299 18.9166 1.35146 18.7681C1.49993 18.6197 1.58333 18.4183 1.58333 18.2083V17.8125C1.58333 16.6577 2.04207 15.5502 2.85864 14.7336C3.6752 13.9171 4.7827 13.4583 5.9375 13.4583C7.0923 13.4583 8.1998 13.9171 9.01636 14.7336C9.83292 15.5502 10.2917 16.6577 10.2917 17.8125V18.2083C10.2917 18.4183 10.3751 18.6197 10.5235 18.7681C10.672 18.9166 10.8734 19 11.0833 19C11.2933 19 11.4947 18.9166 11.6431 18.7681C11.7916 18.6197 11.875 18.4183 11.875 18.2083ZM19 14.25C19 13.1802 18.6903 12.1333 18.1084 11.2356C17.5264 10.338 16.6971 9.62792 15.7205 9.19122C14.7439 8.75453 13.6617 8.60984 12.6047 8.77462C11.5477 8.93941 10.561 9.40663 9.76363 10.1199C9.68507 10.1889 9.62096 10.2728 9.57502 10.3668C9.52907 10.4607 9.5022 10.5628 9.49595 10.6672C9.48969 10.7716 9.50419 10.8762 9.53859 10.975C9.57299 11.0737 9.62662 11.1647 9.69638 11.2426C9.76614 11.3205 9.85064 11.3839 9.94501 11.4289C10.0394 11.474 10.1418 11.4999 10.2462 11.5052C10.3506 11.5105 10.4551 11.495 10.5535 11.4597C10.652 11.4244 10.7424 11.3699 10.8197 11.2995C11.3893 10.7901 12.0941 10.4565 12.8491 10.3389C13.6041 10.2213 14.3769 10.3247 15.0744 10.6367C15.772 10.9486 16.3643 11.4558 16.7799 12.097C17.1955 12.7382 17.4167 13.4859 17.4167 14.25C17.4167 14.46 17.5001 14.6613 17.6485 14.8098C17.797 14.9583 17.9984 15.0417 18.2083 15.0417C18.4183 15.0417 18.6197 14.9583 18.7681 14.8098C18.9166 14.6613 19 14.46 19 14.25ZM13.8542 7.125C13.1496 7.125 12.4608 6.91606 11.8749 6.52461C11.2891 6.13316 10.8325 5.57677 10.5628 4.92581C10.2932 4.27485 10.2227 3.55855 10.3601 2.86749C10.4976 2.17643 10.8369 1.54166 11.3351 1.04343C11.8333 0.545209 12.4681 0.205914 13.1592 0.068454C13.8502 -0.0690058 14.5665 0.00154355 15.2175 0.271181C15.8684 0.540818 16.4248 0.997432 16.8163 1.58328C17.2077 2.16913 17.4167 2.85791 17.4167 3.5625C17.4156 4.50701 17.0399 5.41254 16.3721 6.08041C15.7042 6.74828 14.7987 7.12395 13.8542 7.125ZM13.8542 1.58333C13.4627 1.58333 13.0801 1.69941 12.7546 1.91688C12.4291 2.13436 12.1755 2.44346 12.0257 2.80511C11.8759 3.16675 11.8367 3.5647 11.913 3.94862C11.9894 4.33254 12.1779 4.68519 12.4547 4.96198C12.7315 5.23877 13.0841 5.42727 13.468 5.50364C13.852 5.58001 14.2499 5.54081 14.6116 5.39101C14.9732 5.24121 15.2823 4.98754 15.4998 4.66207C15.7173 4.3366 15.8333 3.95394 15.8333 3.5625C15.8333 3.03759 15.6248 2.53418 15.2536 2.16302C14.8825 1.79185 14.3791 1.58333 13.8542 1.58333Z" fill="white" fill-opacity="0.7"/>
</svg>
