<svg width="21" height="19" viewBox="0 0 21 19" fill="none" xmlns="http://www.w3.org/2000/svg">
<path d="M21 4.31799V5.18158C21 5.65829 20.6089 6.04518 20.125 6.04518C19.6411 6.04518 19.25 5.65829 19.25 5.18158V4.31799C19.25 2.8896 18.0723 1.72719 16.625 1.72719H4.375C2.92775 1.72719 1.75 2.8896 1.75 4.31799V12.954C1.75 14.3823 2.92775 15.5447 4.375 15.5447H7C7.48387 15.5447 7.875 15.9316 7.875 16.4083C7.875 16.8851 7.48387 17.2719 7 17.2719H4.375C1.96263 17.2719 0 15.3349 0 12.954V4.31799C0 1.93705 1.96263 0 4.375 0H16.625C19.0374 0 21 1.93705 21 4.31799ZM13.125 6.04518H16.625C17.1089 6.04518 17.5 5.65829 17.5 5.18158C17.5 4.70488 17.1089 4.31799 16.625 4.31799H13.125C12.6411 4.31799 12.25 4.70488 12.25 5.18158C12.25 5.65829 12.6411 6.04518 13.125 6.04518ZM20.2309 8.53148C20.7261 9.02027 21 9.67142 21 10.3632C21 11.0549 20.7261 11.7061 20.2309 12.1957L14.3622 17.9879C13.7016 18.6399 12.8223 19 11.8878 19H10.5C10.0161 19 9.625 18.6131 9.625 18.1364V16.7667C9.625 15.8444 9.989 14.9765 10.6505 14.3245L16.5191 8.53234C17.5429 7.52193 19.2071 7.52193 20.2309 8.53234V8.53148ZM19.25 10.3632C19.25 10.1326 19.159 9.91582 18.9936 9.7526C18.6515 9.41494 18.0985 9.4158 17.7564 9.7526L11.8878 15.5447C11.5623 15.8669 11.375 16.3116 11.375 16.7659V17.2719H11.8878C12.355 17.2719 12.7943 17.0923 13.125 16.7659L18.9936 10.9737C19.159 10.8105 19.25 10.5937 19.25 10.3632ZM7.875 11.2268H5.8905C5.579 11.2268 5.2885 11.061 5.13188 10.795C4.89125 10.3813 4.35663 10.2388 3.93663 10.4798C3.51837 10.719 3.37488 11.2466 3.61813 11.6594C4.08538 12.4583 4.95687 12.954 5.89137 12.954H6.12587C6.12587 13.4307 6.517 13.8176 7.00088 13.8176C7.48475 13.8176 7.87588 13.4307 7.87588 12.954C9.32313 12.954 10.5009 11.7916 10.5009 10.3632C10.5009 9.18867 9.64863 8.19554 8.47525 8.00296L5.81437 7.56511C5.488 7.51157 5.25087 7.23522 5.25087 6.90878C5.25087 6.43294 5.64288 6.04518 6.12587 6.04518H8.11038C8.42188 6.04518 8.71237 6.21099 8.869 6.47698C9.10962 6.88978 9.64338 7.03141 10.0642 6.79219C10.4825 6.55298 10.626 6.02532 10.3828 5.61252C9.9155 4.81369 9.044 4.31712 8.1095 4.31712H7.875C7.875 3.84042 7.48387 3.45353 7 3.45353C6.51613 3.45353 6.125 3.84042 6.125 4.31712C4.67775 4.31712 3.5 5.47952 3.5 6.90791C3.5 8.08241 4.35225 9.07554 5.52563 9.26812L8.1865 9.70597C8.51287 9.75951 8.75 10.0359 8.75 10.3623C8.75 10.8381 8.358 11.2259 7.875 11.2259V11.2268ZM12.25 8.63597C12.25 9.11268 12.642 9.49957 13.125 9.49957C13.608 9.49957 14 9.11268 14 8.63597C14 8.15927 13.608 7.77237 13.125 7.77237C12.642 7.77237 12.25 8.15927 12.25 8.63597Z" fill="white" fill-opacity="0.7"/>
</svg>
